<svg width="600" height="400" viewBox="0 0 600 400" fill="none" xmlns="http://www.w3.org/2000/svg">
  <defs>
    <linearGradient id="bgGradient" x1="0%" y1="0%" x2="100%" y2="100%">
      <stop offset="0%" style="stop-color:#667eea;stop-opacity:1" />
      <stop offset="100%" style="stop-color:#764ba2;stop-opacity:1" />
    </linearGradient>
    <linearGradient id="chipGradient" x1="0%" y1="0%" x2="100%" y2="100%">
      <stop offset="0%" style="stop-color:#4f46e5;stop-opacity:1" />
      <stop offset="100%" style="stop-color:#7c3aed;stop-opacity:1" />
    </linearGradient>
  </defs>
  
  <!-- Background -->
  <rect width="600" height="400" fill="url(#bgGradient)" rx="12"/>
  
  <!-- Circuit board pattern -->
  <g opacity="0.1">
    <rect x="50" y="50" width="500" height="300" fill="none" stroke="white" stroke-width="2" rx="8"/>
    <circle cx="100" cy="100" r="8" fill="white"/>
    <circle cx="500" cy="100" r="8" fill="white"/>
    <circle cx="100" cy="300" r="8" fill="white"/>
    <circle cx="500" cy="300" r="8" fill="white"/>
    <line x1="100" y1="100" x2="500" y2="100" stroke="white" stroke-width="2"/>
    <line x1="100" y1="300" x2="500" y2="300" stroke="white" stroke-width="2"/>
    <line x1="100" y1="100" x2="100" y2="300" stroke="white" stroke-width="2"/>
    <line x1="500" y1="100" x2="500" y2="300" stroke="white" stroke-width="2"/>
  </g>
  
  <!-- Main circuit chip -->
  <rect x="200" y="150" width="200" height="100" fill="url(#chipGradient)" rx="8"/>
  <rect x="210" y="160" width="180" height="80" fill="none" stroke="white" stroke-width="2" rx="4"/>
  
  <!-- Chip pins -->
  <g stroke="white" stroke-width="2">
    <line x1="200" y1="170" x2="190" y2="170"/>
    <line x1="200" y1="190" x2="190" y2="190"/>
    <line x1="200" y1="210" x2="190" y2="210"/>
    <line x1="200" y1="230" x2="190" y2="230"/>
    <line x1="400" y1="170" x2="410" y2="170"/>
    <line x1="400" y1="190" x2="410" y2="190"/>
    <line x1="400" y1="210" x2="410" y2="210"/>
    <line x1="400" y1="230" x2="410" y2="230"/>
  </g>
  
  <!-- Circuit traces -->
  <g stroke="white" stroke-width="2" opacity="0.6">
    <path d="M 190 170 Q 150 170 120 150"/>
    <path d="M 190 190 Q 150 190 120 200"/>
    <path d="M 190 210 Q 150 210 120 250"/>
    <path d="M 190 230 Q 150 230 120 300"/>
    <path d="M 410 170 Q 450 170 480 150"/>
    <path d="M 410 190 Q 450 190 480 200"/>
    <path d="M 410 210 Q 450 210 480 250"/>
    <path d="M 410 230 Q 450 230 480 300"/>
  </g>
  
  <!-- Connection points -->
  <circle cx="120" cy="150" r="4" fill="white"/>
  <circle cx="120" cy="200" r="4" fill="white"/>
  <circle cx="120" cy="250" r="4" fill="white"/>
  <circle cx="120" cy="300" r="4" fill="white"/>
  <circle cx="480" cy="150" r="4" fill="white"/>
  <circle cx="480" cy="200" r="4" fill="white"/>
  <circle cx="480" cy="250" r="4" fill="white"/>
  <circle cx="480" cy="300" r="4" fill="white"/>
  
  <!-- Data flow indicators -->
  <g opacity="0.8">
    <circle cx="300" cy="120" r="3" fill="#fbbf24">
      <animate attributeName="opacity" values="0.3;1;0.3" dur="2s" repeatCount="indefinite"/>
    </circle>
    <circle cx="320" cy="120" r="3" fill="#fbbf24">
      <animate attributeName="opacity" values="0.3;1;0.3" dur="2s" begin="0.5s" repeatCount="indefinite"/>
    </circle>
    <circle cx="340" cy="120" r="3" fill="#fbbf24">
      <animate attributeName="opacity" values="0.3;1;0.3" dur="2s" begin="1s" repeatCount="indefinite"/>
    </circle>
  </g>
</svg>
